<svg width="45" height="45" viewBox="0 0 45 45" fill="none" xmlns="http://www.w3.org/2000/svg">
<g clip-path="url(#clip0_10620_2505)">
<path d="M38.4737 15.1339L38.0227 16.1716C37.9522 16.3406 37.8333 16.4849 37.6809 16.5864C37.5286 16.688 37.3496 16.7421 37.1665 16.7421C36.9834 16.7421 36.8044 16.688 36.6521 16.5864C36.4997 16.4849 36.3808 16.3406 36.3103 16.1716L35.8593 15.1339C35.0664 13.2983 33.6142 11.8265 31.7893 11.0089L30.3978 10.3874C30.229 10.3098 30.086 10.1854 29.9858 10.0289C29.8855 9.87244 29.8322 9.69052 29.8322 9.5047C29.8322 9.31888 29.8855 9.13695 29.9858 8.98049C30.086 8.82404 30.229 8.6996 30.3978 8.62195L31.7123 8.03711C33.5831 7.19631 35.0601 5.67006 35.8392 3.77278L36.303 2.65261C36.3711 2.4791 36.49 2.33013 36.644 2.22513C36.798 2.12013 36.9801 2.06396 37.1665 2.06396C37.3529 2.06396 37.535 2.12013 37.689 2.22513C37.8431 2.33013 37.9619 2.4791 38.03 2.65261L38.4938 3.77095C39.2721 5.66859 40.7485 7.19549 42.6188 8.03711L43.9352 8.62378C44.1035 8.70166 44.246 8.82607 44.3458 8.98233C44.4457 9.13859 44.4988 9.32017 44.4988 9.50561C44.4988 9.69106 44.4457 9.87264 44.3458 10.0289C44.246 10.1852 44.1035 10.3096 43.9352 10.3874L42.5418 11.0071C40.7173 11.8255 39.2658 13.2979 38.4737 15.1339ZM4.1665 7.56595C4.1665 7.07972 4.35966 6.6134 4.70347 6.26959C5.04729 5.92577 5.51361 5.73261 5.99984 5.73261H26.1665V9.39928H7.83317V35.066H37.1665V20.3993H40.8332V36.8993C40.8332 37.3855 40.64 37.8518 40.2962 38.1956C39.9524 38.5395 39.4861 38.7326 38.9998 38.7326H5.99984C5.51361 38.7326 5.04729 38.5395 4.70347 38.1956C4.35966 37.8518 4.1665 37.3855 4.1665 36.8993V7.56595ZM13.3332 24.066H16.9998V31.3993H13.3332V24.066ZM20.6665 13.0659H24.3332V31.3993H20.6665V13.0659ZM27.9998 18.5659H31.6665V31.3993H27.9998V18.5659Z" fill="#EDB86E"/>
</g>
<defs>
<clipPath id="clip0_10620_2505">
<rect width="44" height="44" fill="white" transform="translate(0.5 0.232666)"/>
</clipPath>
</defs>
</svg>
