<svg width="33" height="32" viewBox="0 0 33 32" fill="none" xmlns="http://www.w3.org/2000/svg">
<path d="M27.0842 10.6667H28.5002C29.2074 10.6667 29.8857 10.9476 30.3858 11.4477C30.8859 11.9478 31.1668 12.6261 31.1668 13.3333V18.6667C31.1668 19.3739 30.8859 20.0522 30.3858 20.5523C29.8857 21.0524 29.2074 21.3333 28.5002 21.3333H27.0842C26.7594 23.9112 25.5049 26.2819 23.5561 28.0003C21.6074 29.7188 19.0984 30.6669 16.5002 30.6667V28C18.6219 28 20.6567 27.1572 22.157 25.6569C23.6573 24.1566 24.5002 22.1217 24.5002 20V12C24.5002 9.87828 23.6573 7.84345 22.157 6.34316C20.6567 4.84286 18.6219 4.00001 16.5002 4.00001C14.3784 4.00001 12.3436 4.84286 10.8433 6.34316C9.34302 7.84345 8.50016 9.87828 8.50016 12V21.3333H4.50016C3.79292 21.3333 3.11464 21.0524 2.61454 20.5523C2.11445 20.0522 1.8335 19.3739 1.8335 18.6667V13.3333C1.8335 12.6261 2.11445 11.9478 2.61454 11.4477C3.11464 10.9476 3.79292 10.6667 4.50016 10.6667H5.91616C6.24154 8.0892 7.49627 5.71904 9.44493 4.00091C11.3936 2.28278 13.9022 1.33478 16.5002 1.33478C19.0981 1.33478 21.6067 2.28278 23.5554 4.00091C25.5041 5.71904 26.7588 8.0892 27.0842 10.6667ZM4.50016 13.3333V18.6667H5.8335V13.3333H4.50016ZM27.1668 13.3333V18.6667H28.5002V13.3333H27.1668ZM10.8468 21.0467L12.2602 18.7853C13.5309 19.5815 15.0006 20.0026 16.5002 20C17.9997 20.0026 19.4695 19.5815 20.7402 18.7853L22.1535 21.0467C20.4593 22.1084 18.4996 22.67 16.5002 22.6667C14.5007 22.67 12.5411 22.1084 10.8468 21.0467Z" fill="#0F2170"/>
</svg>
