<svg width="45" height="45" viewBox="0 0 45 45" fill="none" xmlns="http://www.w3.org/2000/svg">
<path d="M40.8332 31.4031C40.833 33.9104 39.9763 36.3425 38.4049 38.2964C36.8334 40.2502 34.6417 41.6086 32.1927 42.1464L31.023 38.6374C32.0942 38.4614 33.113 38.0497 34.0058 37.4321C34.8986 36.8145 35.6431 36.0064 36.1857 35.0661H31.6665C30.694 35.0661 29.7614 34.6798 29.0738 33.9921C28.3861 33.3045 27.9998 32.3719 27.9998 31.3994V24.0661C27.9998 23.0936 28.3861 22.161 29.0738 21.4734C29.7614 20.7857 30.694 20.3994 31.6665 20.3994H37.0528C36.6054 16.8554 34.8802 13.5964 32.2008 11.234C29.5214 8.87156 26.072 7.56805 22.4998 7.56805C18.9277 7.56805 15.4783 8.87156 12.7989 11.234C10.1195 13.5964 8.39423 16.8554 7.94684 20.3994H13.3332C14.3056 20.3994 15.2383 20.7857 15.9259 21.4734C16.6135 22.161 16.9998 23.0936 16.9998 24.0661V31.3994C16.9998 32.3719 16.6135 33.3045 15.9259 33.9921C15.2383 34.6798 14.3056 35.0661 13.3332 35.0661H7.83317C6.86071 35.0661 5.92808 34.6798 5.24045 33.9921C4.55281 33.3045 4.1665 32.3719 4.1665 31.3994V22.2327C4.1665 12.1072 12.3743 3.89941 22.4998 3.89941C32.6253 3.89941 40.8332 12.1072 40.8332 22.2327V31.4031ZM37.1665 31.3994V24.0661H31.6665V31.3994H37.1665ZM7.83317 24.0661V31.3994H13.3332V24.0661H7.83317Z" fill="#7FD7AC"/>
</svg>
