<svg width="33" height="32" viewBox="0 0 33 32" fill="none" xmlns="http://www.w3.org/2000/svg">
<path d="M26.456 11.592L26.784 10.8374C27.3607 9.50231 28.4168 8.43191 29.744 7.83735L30.756 7.38535C30.8788 7.32887 30.9828 7.23838 31.0557 7.12459C31.1286 7.0108 31.1674 6.87849 31.1674 6.74335C31.1674 6.60821 31.1286 6.4759 31.0557 6.36211C30.9828 6.24832 30.8788 6.15783 30.756 6.10135L29.8 5.67602C28.4395 5.06452 27.3653 3.95453 26.7987 2.57468L26.4613 1.76002C26.4118 1.63382 26.3254 1.52548 26.2134 1.44912C26.1013 1.37275 25.9689 1.33191 25.8333 1.33191C25.6978 1.33191 25.5653 1.37275 25.4533 1.44912C25.3413 1.52548 25.2549 1.63382 25.2053 1.76002L24.868 2.57335C24.302 3.95345 23.2283 5.06393 21.868 5.67602L20.9107 6.10268C20.7883 6.15932 20.6846 6.24981 20.612 6.36345C20.5394 6.47709 20.5008 6.60915 20.5008 6.74402C20.5008 6.87889 20.5394 7.01094 20.612 7.12459C20.6846 7.23823 20.7883 7.32871 20.9107 7.38535L21.924 7.83602C23.2509 8.43117 24.3066 9.50205 24.8827 10.8374L25.2107 11.592C25.4507 12.144 26.2147 12.144 26.456 11.592ZM7.16667 8.00002C6.95968 8.00002 6.75553 8.04821 6.57039 8.14078C6.38525 8.23335 6.2242 8.36776 6.1 8.53335L2.1 13.8667C1.9147 14.1139 1.82098 14.4177 1.83484 14.7263C1.8487 15.0349 1.96929 15.3291 2.176 15.5587L14.176 28.892C14.301 29.0308 14.4538 29.1418 14.6245 29.2177C14.7951 29.2937 14.9799 29.333 15.1667 29.333C15.3535 29.333 15.5382 29.2937 15.7089 29.2177C15.8795 29.1418 16.0323 29.0308 16.1573 28.892L28.1573 15.5587L26.176 13.7747L15.1667 26.0067L4.89067 14.5894L7.83334 10.6667H19.1667V8.00002H7.16667Z" fill="#0F2170"/>
</svg>
