<svg width="33" height="32" viewBox="0 0 33 32" fill="none" xmlns="http://www.w3.org/2000/svg">
<path d="M17.8333 16H21.8333L16.5 21.3334L11.1667 16H15.1667V10.6667H17.8333V16ZM20.5 5.33335H7.16667V26.6667H25.8333V10.6667H20.5V5.33335ZM4.5 3.98935C4.5 3.25869 5.096 2.66669 5.832 2.66669H21.8333L28.5 9.33335V27.9907C28.5012 28.1658 28.468 28.3394 28.4021 28.5016C28.3362 28.6639 28.239 28.8116 28.1161 28.9362C27.9931 29.0609 27.8468 29.1602 27.6855 29.2283C27.5242 29.2964 27.3511 29.3321 27.176 29.3334H5.824C5.47384 29.3309 5.13869 29.1908 4.89096 28.9433C4.64322 28.6959 4.50279 28.3608 4.5 28.0107V3.98935Z" fill="#0F2170"/>
</svg>
