<svg width="33" height="32" viewBox="0 0 33 32" fill="none" xmlns="http://www.w3.org/2000/svg">
<path d="M3.1665 29.3333C3.1665 26.5043 4.29031 23.7912 6.2907 21.7908C8.29109 19.7905 11.0042 18.6666 13.8332 18.6666C16.6621 18.6666 19.3753 19.7905 21.3756 21.7908C23.376 23.7912 24.4998 26.5043 24.4998 29.3333H21.8332C21.8332 27.2116 20.9903 25.1768 19.49 23.6765C17.9897 22.1762 15.9549 21.3333 13.8332 21.3333C11.7114 21.3333 9.67661 22.1762 8.17632 23.6765C6.67603 25.1768 5.83317 27.2116 5.83317 29.3333H3.1665ZM13.8332 17.3333C9.41317 17.3333 5.83317 13.7533 5.83317 9.33331C5.83317 4.91331 9.41317 1.33331 13.8332 1.33331C18.2532 1.33331 21.8332 4.91331 21.8332 9.33331C21.8332 13.7533 18.2532 17.3333 13.8332 17.3333ZM13.8332 14.6666C16.7798 14.6666 19.1665 12.28 19.1665 9.33331C19.1665 6.38665 16.7798 3.99998 13.8332 3.99998C10.8865 3.99998 8.49984 6.38665 8.49984 9.33331C8.49984 12.28 10.8865 14.6666 13.8332 14.6666ZM24.8785 19.604C26.7525 20.4476 28.3429 21.8146 29.4584 23.5406C30.5739 25.2667 31.167 27.2782 31.1665 29.3333H28.4998C28.5003 27.7919 28.0555 26.2832 27.2188 24.9886C26.3822 23.694 25.1894 22.6687 23.7838 22.036L24.8785 19.604ZM23.9612 4.55065C25.3045 5.10438 26.4531 6.0447 27.2612 7.25229C28.0693 8.45988 28.5004 9.8803 28.4998 11.3333C28.5001 13.163 27.8164 14.9267 26.5829 16.2781C25.3494 17.6295 23.6553 18.471 21.8332 18.6373V15.9533C22.8211 15.8118 23.7376 15.3573 24.4482 14.6566C25.1589 13.9558 25.6261 13.0457 25.7814 12.0599C25.9367 11.074 25.7718 10.0644 25.311 9.17912C24.8502 8.29386 24.1178 7.57964 23.2212 7.14131L23.9612 4.55065Z" fill="#0F2170"/>
</svg>
