<svg width="33" height="33" viewBox="0 0 33 33" fill="none" xmlns="http://www.w3.org/2000/svg">
<path d="M7.17353 12.7367C7.52716 12.7367 7.86629 12.8771 8.11634 13.1272C8.36639 13.3772 8.50687 13.7164 8.50687 14.07C10.6017 14.0669 12.6362 14.7717 14.2802 16.07H17.1735C18.9495 16.07 20.5469 16.8433 21.6455 18.07H25.8402C27.1005 18.0696 28.3352 18.4266 29.4009 19.0994C30.4667 19.7722 31.3198 20.7333 31.8615 21.8713C28.7082 26.0313 23.6029 28.7367 17.8402 28.7367C14.1202 28.7367 10.9735 27.9327 8.42553 26.526C8.33193 26.7832 8.16144 27.0053 7.93722 27.1623C7.71299 27.3193 7.4459 27.4034 7.1722 27.4033H3.1722C2.81858 27.4033 2.47944 27.2628 2.22939 27.0128C1.97934 26.7627 1.83887 26.4236 1.83887 26.07V14.07C1.83887 13.7164 1.97934 13.3772 2.22939 13.1272C2.47944 12.8771 2.81858 12.7367 3.1722 12.7367H7.17353ZM8.50687 16.7367V23.4327L8.56687 23.4753C10.9589 25.1553 14.0775 26.07 17.8402 26.07C21.8455 26.07 25.5709 24.5287 28.2869 21.8967L28.4642 21.7193L28.3042 21.586C27.6744 21.0933 26.9113 20.8007 26.1135 20.746L25.8402 20.7367H23.0242C23.122 21.166 23.1718 21.6104 23.1735 22.07V23.4033H11.1735V20.7367L20.2269 20.7353L20.1815 20.63C19.9259 20.0962 19.5328 19.6401 19.0426 19.3085C18.5524 18.9769 17.9828 18.7819 17.3922 18.7433L17.1735 18.7367H13.2669C12.6463 18.1035 11.9057 17.6006 11.0883 17.2571C10.271 16.9137 9.39341 16.7368 8.50687 16.7367ZM5.8402 15.4033H4.50687V24.7367H5.8402V15.4033ZM24.5069 7.40332C25.5677 7.40332 26.5851 7.82475 27.3353 8.57489C28.0854 9.32504 28.5069 10.3425 28.5069 11.4033C28.5069 12.4642 28.0854 13.4816 27.3353 14.2317C26.5851 14.9819 25.5677 15.4033 24.5069 15.4033C23.446 15.4033 22.4286 14.9819 21.6784 14.2317C20.9283 13.4816 20.5069 12.4642 20.5069 11.4033C20.5069 10.3425 20.9283 9.32504 21.6784 8.57489C22.4286 7.82475 23.446 7.40332 24.5069 7.40332ZM24.5069 10.07C24.1532 10.07 23.8141 10.2105 23.5641 10.4605C23.314 10.7106 23.1735 11.0497 23.1735 11.4033C23.1735 11.7569 23.314 12.0961 23.5641 12.3461C23.8141 12.5962 24.1532 12.7367 24.5069 12.7367C24.8605 12.7367 25.1996 12.5962 25.4497 12.3461C25.6997 12.0961 25.8402 11.7569 25.8402 11.4033C25.8402 11.0497 25.6997 10.7106 25.4497 10.4605C25.1996 10.2105 24.8605 10.07 24.5069 10.07ZM15.1735 3.40332C16.2344 3.40332 17.2518 3.82475 18.002 4.57489C18.7521 5.32504 19.1735 6.34245 19.1735 7.40332C19.1735 8.46419 18.7521 9.4816 18.002 10.2317C17.2518 10.9819 16.2344 11.4033 15.1735 11.4033C14.1127 11.4033 13.0953 10.9819 12.3451 10.2317C11.595 9.4816 11.1735 8.46419 11.1735 7.40332C11.1735 6.34245 11.595 5.32504 12.3451 4.57489C13.0953 3.82475 14.1127 3.40332 15.1735 3.40332ZM15.1735 6.06999C14.8199 6.06999 14.4808 6.21046 14.2307 6.46051C13.9807 6.71056 13.8402 7.0497 13.8402 7.40332C13.8402 7.75694 13.9807 8.09608 14.2307 8.34613C14.4808 8.59618 14.8199 8.73665 15.1735 8.73665C15.5272 8.73665 15.8663 8.59618 16.1163 8.34613C16.3664 8.09608 16.5069 7.75694 16.5069 7.40332C16.5069 7.0497 16.3664 6.71056 16.1163 6.46051C15.8663 6.21046 15.5272 6.06999 15.1735 6.06999Z" fill="#0D83FD"/>
</svg>
