<svg width="33" height="33" viewBox="0 0 33 33" fill="none" xmlns="http://www.w3.org/2000/svg">
<path d="M26.58 16.8633L28.6227 20.3993C29.0322 21.1087 29.2479 21.9134 29.2479 22.7326C29.2479 23.5517 29.0323 24.3565 28.6227 25.0659C28.2131 25.7753 27.624 26.3644 26.9146 26.774C26.2052 27.1836 25.4005 27.3993 24.5813 27.3993H21.832V30.7326L15.1653 26.0659L21.832 21.3993V24.7326H24.5813C24.9324 24.7326 25.2773 24.6402 25.5813 24.4646C25.8853 24.2891 26.1378 24.0366 26.3133 23.7326C26.4889 23.4286 26.5813 23.0837 26.5813 22.7326C26.5813 22.3815 26.4889 22.0366 26.3133 21.7326L24.2707 18.1966L26.58 16.8633ZM10.2387 12.9113L10.9453 21.0179L8.05866 19.3513L6.68533 21.7326C6.50985 22.0365 6.41744 22.3813 6.41738 22.7323C6.41732 23.0832 6.50961 23.428 6.68498 23.732C6.86035 24.036 7.11263 24.2885 7.41648 24.4641C7.72033 24.6398 8.06504 24.7324 8.41599 24.7326H12.4987V27.3993H8.41599C7.59672 27.3995 6.79183 27.184 6.08224 26.7745C5.37264 26.365 4.78336 25.7759 4.37363 25.0665C3.9639 24.357 3.74817 23.5522 3.74811 22.7329C3.74806 21.9136 3.96369 21.1088 4.37333 20.3993L5.74799 18.0166L2.86133 16.3513L10.2387 12.9113ZM18.8333 4.69128C19.5422 5.10103 20.1308 5.69008 20.54 6.39928L21.916 8.78061L24.8027 7.11394L24.0947 15.2206L16.72 11.7806L19.6067 10.1139L18.232 7.73261C18.0565 7.4286 17.804 7.17614 17.5 7.00062C17.1959 6.8251 16.8511 6.7327 16.5 6.7327C16.1489 6.7327 15.8041 6.8251 15.5 7.00062C15.196 7.17614 14.9435 7.4286 14.768 7.73261L12.724 11.2699L10.4147 9.93661L12.4573 6.39928C13.0762 5.32783 14.0952 4.54601 15.2904 4.22572C16.4855 3.90543 17.7589 4.07289 18.8307 4.69128" fill="#A959FF"/>
</svg>
