<svg width="33" height="33" viewBox="0 0 33 33" fill="none" xmlns="http://www.w3.org/2000/svg">
<path d="M15.1665 3.39941C21.7905 3.39941 27.1665 8.77541 27.1665 15.3994C27.1665 22.0234 21.7905 27.3994 15.1665 27.3994C8.5425 27.3994 3.1665 22.0234 3.1665 15.3994C3.1665 8.77541 8.5425 3.39941 15.1665 3.39941ZM15.1665 24.7327C20.3225 24.7327 24.4998 20.5554 24.4998 15.3994C24.4998 10.2434 20.3225 6.06608 15.1665 6.06608C10.0105 6.06608 5.83317 10.2434 5.83317 15.3994C5.83317 20.5554 10.0105 24.7327 15.1665 24.7327ZM26.4798 24.8274L30.2518 28.5981L28.3652 30.4847L24.5945 26.7127L26.4798 24.8274Z" fill="#EDB86E"/>
</svg>
