<svg width="45" height="45" viewBox="0 0 45 45" fill="none" xmlns="http://www.w3.org/2000/svg">
<path d="M22.5 2.06567L37.5645 5.41334C37.9716 5.50384 38.3357 5.73044 38.5967 6.05575C38.8577 6.38106 38.9999 6.78562 39 7.20267V25.5122C38.9999 27.323 38.5527 29.1058 37.6981 30.7024C36.8436 32.2989 35.6081 33.6598 34.1013 34.6642L22.5 42.399L10.8987 34.6642C9.39217 33.6599 8.15684 32.2994 7.3023 30.7032C6.44777 29.107 6.00043 27.3245 6 25.514V7.20267C6.00007 6.78562 6.14234 6.38106 6.40331 6.05575C6.66429 5.73044 7.02838 5.50384 7.4355 5.41334L22.5 2.06567ZM22.5 5.82217L9.66667 8.67301V25.5122C9.66669 26.7194 9.96472 27.9079 10.5343 28.9722C11.1039 30.0366 11.9274 30.9438 12.9318 31.6135L22.5 37.9935L32.0682 31.6135C33.0723 30.944 33.8957 30.037 34.4653 28.973C35.0348 27.909 35.333 26.7209 35.3333 25.514V8.67301L22.5 5.82217ZM30.662 15.306L33.2562 17.8983L21.5888 29.5657L13.81 21.7868L16.4023 19.1945L21.587 24.3792L30.662 15.306Z" fill="#F39090"/>
</svg>
