<svg width="33" height="33" viewBox="0 0 33 33" fill="none" xmlns="http://www.w3.org/2000/svg">
<path d="M16.3145 3.9194C16.9597 3.48948 17.7159 3.25631 18.4911 3.24826C19.2663 3.24021 20.0272 3.45763 20.6812 3.87406L26.2198 7.3994H28.4998C28.8535 7.3994 29.1926 7.53987 29.4426 7.78992C29.6927 8.03997 29.8332 8.37911 29.8332 8.73273V20.7327C29.8332 21.0864 29.6927 21.4255 29.4426 21.6755C29.1926 21.9256 28.8535 22.0661 28.4998 22.0661H26.4732C26.5159 22.7153 26.3786 23.3638 26.0763 23.94C25.7739 24.5161 25.3184 24.9976 24.7598 25.3314L17.9692 29.4061C17.5519 29.6562 17.0742 29.7875 16.5877 29.7856C16.1012 29.7837 15.6245 29.6488 15.2092 29.3954C14.7414 29.8087 14.1434 30.0448 13.5195 30.0626C12.8955 30.0804 12.2851 29.8787 11.7945 29.4927L4.94117 24.1074C4.46211 23.7315 4.12613 23.203 3.98908 22.6096C3.85203 22.0163 3.92217 21.394 4.18784 20.8461C3.86945 20.5964 3.61203 20.2776 3.43508 19.9138C3.25813 19.55 3.16629 19.1506 3.1665 18.7461V8.73273C3.1665 8.37911 3.30698 8.03997 3.55703 7.78992C3.80708 7.53987 4.14622 7.3994 4.49984 7.3994H11.0958L16.3145 3.9194ZM6.06384 18.9274L6.9865 18.1207C7.77501 17.431 8.80265 17.0781 9.84855 17.138C10.8945 17.1978 11.8751 17.6656 12.5798 18.4407L16.1825 22.4034C16.7475 23.0248 17.1025 23.8083 17.1973 24.6428C17.292 25.4773 17.1217 26.3204 16.7105 27.0527L23.3892 23.0461C23.5633 22.9405 23.6954 22.7778 23.763 22.5857C23.8306 22.3936 23.8295 22.1841 23.7598 21.9927L17.8572 13.7287C17.6955 13.5022 17.4671 13.332 17.2038 13.2419C16.9406 13.1517 16.6557 13.1462 16.3892 13.2261L13.0745 14.2194C12.3828 14.4269 11.6478 14.4432 10.9475 14.2667C10.2473 14.0901 9.60787 13.7273 9.09717 13.2167L8.7065 12.8274C8.35218 12.4731 8.10483 12.0262 7.99281 11.5378C7.8808 11.0494 7.90865 10.5393 8.07317 10.0661H5.83317V18.7461L6.06384 18.9274ZM19.2505 6.12473C19.0322 5.98568 18.7782 5.91315 18.5195 5.91599C18.2607 5.91883 18.0083 5.99692 17.7932 6.14073L10.5932 10.9407L10.9825 11.3314C11.1529 11.5016 11.3662 11.6225 11.5998 11.6812C11.8334 11.7398 12.0785 11.7342 12.3092 11.6647L15.6225 10.6714C16.422 10.4316 17.2765 10.448 18.0662 10.7182C18.856 10.9884 19.5414 11.4988 20.0265 12.1781L25.1865 19.3994H27.1665V10.0661H26.2212C25.7139 10.066 25.2171 9.92122 24.7892 9.64873L19.2505 6.12473ZM8.74117 20.1261L6.5865 22.0114L13.4398 27.3967L14.3798 25.7541C14.5195 25.5094 14.5781 25.2268 14.5472 24.9468C14.5163 24.6668 14.3975 24.4037 14.2078 24.1954L10.6065 20.2327C10.3716 19.9745 10.0448 19.8186 9.69629 19.7987C9.34776 19.7787 9.00398 19.8963 8.74117 20.1261Z" fill="#7FD7AC"/>
</svg>
