<svg width="33" height="33" viewBox="0 0 33 33" fill="none" xmlns="http://www.w3.org/2000/svg">
<path d="M16.4998 15.3994C18.2679 15.3994 19.9636 16.1018 21.2139 17.352C22.4641 18.6023 23.1665 20.298 23.1665 22.0661V30.0661H20.4998V22.0661C20.4999 21.0458 20.1101 20.0641 19.4101 19.3217C18.7102 18.5794 17.753 18.1326 16.7345 18.0727L16.4998 18.0661C15.4796 18.066 14.4978 18.4558 13.7555 19.1558C13.0132 19.8557 12.5664 20.8129 12.5065 21.8314L12.4998 22.0661V30.0661H9.83317V22.0661C9.83317 20.298 10.5355 18.6023 11.7858 17.352C13.036 16.1018 14.7317 15.3994 16.4998 15.3994ZM7.83317 19.3994C8.2065 19.4003 8.5665 19.4421 8.91317 19.5247C8.68604 20.2036 8.55105 20.9099 8.51184 21.6247L8.49984 22.0661V22.1807C8.34655 22.126 8.18714 22.0902 8.02517 22.0741L7.83317 22.0661C7.3362 22.0661 6.85703 22.2511 6.48903 22.5851C6.12102 22.9191 5.89054 23.3781 5.8425 23.8727L5.83317 24.0661V30.0661H3.1665V24.0661C3.1665 22.8284 3.65817 21.6414 4.53334 20.7663C5.40851 19.8911 6.59549 19.3994 7.83317 19.3994ZM25.1665 19.3994C26.4042 19.3994 27.5912 19.8911 28.4663 20.7663C29.3415 21.6414 29.8332 22.8284 29.8332 24.0661V30.0661H27.1665V24.0661C27.1665 23.5691 26.9815 23.0899 26.6475 22.7219C26.3135 22.3539 25.8545 22.1235 25.3598 22.0754L25.1665 22.0661C24.9318 22.067 24.7096 22.1047 24.4998 22.1794V22.0661C24.4998 21.1781 24.3558 20.3247 24.0892 19.5274C24.4332 19.4434 24.7958 19.3994 25.1665 19.3994ZM7.83317 11.3994C8.71723 11.3994 9.56507 11.7506 10.1902 12.3757C10.8153 13.0008 11.1665 13.8487 11.1665 14.7327C11.1665 15.6168 10.8153 16.4646 10.1902 17.0898C9.56507 17.7149 8.71723 18.0661 7.83317 18.0661C6.94912 18.0661 6.10127 17.7149 5.47615 17.0898C4.85103 16.4646 4.49984 15.6168 4.49984 14.7327C4.49984 13.8487 4.85103 13.0008 5.47615 12.3757C6.10127 11.7506 6.94912 11.3994 7.83317 11.3994ZM25.1665 11.3994C26.0506 11.3994 26.8984 11.7506 27.5235 12.3757C28.1486 13.0008 28.4998 13.8487 28.4998 14.7327C28.4998 15.6168 28.1486 16.4646 27.5235 17.0898C26.8984 17.7149 26.0506 18.0661 25.1665 18.0661C24.2824 18.0661 23.4346 17.7149 22.8095 17.0898C22.1844 16.4646 21.8332 15.6168 21.8332 14.7327C21.8332 13.8487 22.1844 13.0008 22.8095 12.3757C23.4346 11.7506 24.2824 11.3994 25.1665 11.3994ZM7.83317 14.0661C7.65636 14.0661 7.48679 14.1363 7.36177 14.2613C7.23674 14.3864 7.1665 14.5559 7.1665 14.7327C7.1665 14.9096 7.23674 15.0791 7.36177 15.2042C7.48679 15.3292 7.65636 15.3994 7.83317 15.3994C8.00998 15.3994 8.17955 15.3292 8.30457 15.2042C8.4296 15.0791 8.49984 14.9096 8.49984 14.7327C8.49984 14.5559 8.4296 14.3864 8.30457 14.2613C8.17955 14.1363 8.00998 14.0661 7.83317 14.0661ZM25.1665 14.0661C24.9897 14.0661 24.8201 14.1363 24.6951 14.2613C24.5701 14.3864 24.4998 14.5559 24.4998 14.7327C24.4998 14.9096 24.5701 15.0791 24.6951 15.2042C24.8201 15.3292 24.9897 15.3994 25.1665 15.3994C25.3433 15.3994 25.5129 15.3292 25.6379 15.2042C25.7629 15.0791 25.8332 14.9096 25.8332 14.7327C25.8332 14.5559 25.7629 14.3864 25.6379 14.2613C25.5129 14.1363 25.3433 14.0661 25.1665 14.0661ZM16.4998 3.39941C17.9143 3.39941 19.2709 3.96132 20.2711 4.96151C21.2713 5.96171 21.8332 7.31826 21.8332 8.73275C21.8332 10.1472 21.2713 11.5038 20.2711 12.504C19.2709 13.5042 17.9143 14.0661 16.4998 14.0661C15.0854 14.0661 13.7288 13.5042 12.7286 12.504C11.7284 11.5038 11.1665 10.1472 11.1665 8.73275C11.1665 7.31826 11.7284 5.96171 12.7286 4.96151C13.7288 3.96132 15.0854 3.39941 16.4998 3.39941ZM16.4998 6.06608C15.7926 6.06608 15.1143 6.34703 14.6142 6.84713C14.1141 7.34723 13.8332 8.0255 13.8332 8.73275C13.8332 9.43999 14.1141 10.1183 14.6142 10.6184C15.1143 11.1185 15.7926 11.3994 16.4998 11.3994C17.2071 11.3994 17.8854 11.1185 18.3855 10.6184C18.8856 10.1183 19.1665 9.43999 19.1665 8.73275C19.1665 8.0255 18.8856 7.34723 18.3855 6.84713C17.8854 6.34703 17.2071 6.06608 16.4998 6.06608Z" fill="#F39090"/>
</svg>
