<svg width="45" height="45" viewBox="0 0 45 45" fill="none" xmlns="http://www.w3.org/2000/svg">
<path d="M10.2716 6.23142C11.4942 5.79542 12.8204 5.7405 14.0749 6.07392C15.3295 6.40734 16.4534 7.11342 17.2983 8.09891C18.1431 9.08441 18.6693 10.303 18.8071 11.5937C18.945 12.8845 18.6882 14.1867 18.0706 15.3284L37.7037 34.9634L35.1114 37.5558L15.4764 17.9208C14.3344 18.5366 13.0325 18.7919 11.7425 18.6532C10.4524 18.5144 9.23472 17.988 8.24977 17.1434C7.26483 16.2988 6.5589 15.1756 6.22501 13.9218C5.89112 12.668 5.94495 11.3425 6.37939 10.1199L10.4806 14.2211C10.9992 14.722 11.6939 14.9992 12.4149 14.9929C13.1359 14.9867 13.8257 14.6975 14.3356 14.1876C14.8454 13.6777 15.1346 12.988 15.1409 12.2669C15.1472 11.5459 14.87 10.8512 14.3691 10.3326L10.2716 6.23142ZM29.2777 9.68359L35.1114 6.44226L37.7037 9.03642L34.4624 14.8701L31.2211 15.5173L27.3344 19.4058L24.7402 16.8134L28.6287 12.9249L29.2777 9.68359ZM16.9614 24.5923L19.5556 27.1846L9.83155 36.9068C9.501 37.2382 9.05616 37.4307 8.58824 37.4447C8.12032 37.4587 7.66476 37.2932 7.31497 36.9821C6.96517 36.671 6.74764 36.2379 6.70696 35.7715C6.66629 35.3051 6.80556 34.8409 7.09622 34.4739L7.23922 34.3144L16.9614 24.5923Z" fill="#38AEF9"/>
</svg>
