<svg width="203" height="53" viewBox="0 0 203 53" fill="none" xmlns="http://www.w3.org/2000/svg">
<g clip-path="url(#clip0_10620_2838)">
<path d="M54.1543 37.0581V14.5093H62.6568C68.008 14.5093 71.0406 17.1603 71.0406 21.8224C71.0406 24.7477 69.8217 26.8197 67.3839 28.0995L71.2487 37.0581H65.9868L62.6868 29.166H58.9707V37.0581H54.1543ZM58.9701 24.8391H62.6268C64.7373 24.8391 65.9563 23.7421 65.9563 21.8224C65.9563 19.9027 64.7967 18.8972 62.6562 18.8972H58.9701V24.8391Z" fill="#0F2170"/>
<path d="M71.6051 29.4099C71.6051 24.6563 74.7265 21.335 79.2155 21.335C83.7045 21.335 86.7965 24.4735 86.7965 29.4403V30.6287L76.0048 30.6897C76.2722 32.7008 77.3724 33.6454 79.3935 33.6454C81.1179 33.6454 82.3368 33.0055 82.6636 31.9085H86.8552C86.3204 35.2908 83.3771 37.4543 79.3042 37.4543C74.8152 37.4543 71.6045 34.1025 71.6045 29.4099H71.6051ZM76.0647 27.7949H82.2481C82.2481 26.1799 81.0885 25.1439 79.2454 25.1439C77.4024 25.1439 76.4215 25.9666 76.0647 27.7949Z" fill="#0F2170"/>
<path d="M88.9072 37.0582V21.8225H93.1882L93.4856 23.407C94.229 22.3405 95.6854 21.335 97.8259 21.335C99.9663 21.335 101.483 22.4015 102.345 24.0164C103.118 22.4015 104.872 21.335 107.012 21.335C110.847 21.335 112.75 23.6203 112.75 27.0941V37.0582H108.172V28.4043C108.172 26.4846 107.191 25.5705 105.734 25.5705C104.426 25.5705 103.118 26.3018 103.118 28.8919V37.0582H98.54V28.4043C98.54 26.5151 97.5884 25.601 96.1321 25.601C94.8238 25.601 93.4862 26.3323 93.4862 28.8919V37.0582H88.9078H88.9072Z" fill="#0F2170"/>
<path d="M122.828 21.3657C127.555 21.3657 131.003 24.5957 131.003 29.4102C131.003 34.2246 127.554 37.4241 122.828 37.4241C118.101 37.4241 114.623 34.2246 114.623 29.4102C114.623 24.5957 118.071 21.3657 122.828 21.3657ZM122.828 33.2191C124.939 33.2191 126.395 31.6955 126.395 29.3797C126.395 27.0639 124.938 25.5708 122.828 25.5708C120.717 25.5708 119.23 27.0943 119.23 29.3797C119.23 31.665 120.687 33.2191 122.828 33.2191Z" fill="#0F2170"/>
<path d="M133.619 37.0581V14.5093H138.435V23.4069H146.938V14.5093H151.753V37.0581H146.938V27.9776H138.435V37.0581H133.619Z" fill="#0F2170"/>
<path d="M154.815 16.7643C154.815 15.2712 155.975 14.1133 157.431 14.1133C158.888 14.1133 160.018 15.2712 160.018 16.7643C160.018 18.2574 158.858 19.4458 157.431 19.4458C156.004 19.4458 154.815 18.2574 154.815 16.7643ZM155.172 21.8225H159.751V37.0582H155.172V21.8225Z" fill="#0F2170"/>
<path d="M172.83 26.241H171.373C168.758 26.241 167.182 27.4294 167.182 30.4461V37.0584H162.604V21.8531H166.914L167.152 24.108C167.777 22.6149 169.085 21.6094 171.077 21.6094C171.611 21.6094 172.206 21.6703 172.83 21.8227V26.241Z" fill="#0F2170"/>
<path d="M173.306 29.4099C173.306 24.6563 176.428 21.335 180.917 21.335C185.406 21.335 188.498 24.4735 188.498 29.4403V30.6287L177.706 30.6897C177.973 32.7008 179.073 33.6454 181.095 33.6454C182.82 33.6454 184.039 33.0055 184.365 31.9085H188.557C188.022 35.2908 185.079 37.4543 181.006 37.4543C176.517 37.4543 173.306 34.1025 173.306 29.4099ZM177.766 27.7949H183.949C183.949 26.1799 182.79 25.1439 180.947 25.1439C179.103 25.1439 178.123 25.9666 177.766 27.7949Z" fill="#0F2170"/>
<path d="M193.879 32.2437C193.938 33.3102 194.711 33.9501 196.109 33.9501C197.506 33.9501 198.19 33.4321 198.19 32.6398C198.19 32.1828 197.952 31.6952 196.852 31.4515L194.117 30.842C191.382 30.2326 190.044 29.0137 190.044 26.3323C190.044 23.1632 192.69 21.335 196.257 21.335C199.825 21.335 202.114 23.407 202.114 26.4846H197.774C197.774 25.4486 197.149 24.7478 196.049 24.7478C195.009 24.7478 194.355 25.2962 194.355 26.119C194.355 26.8198 194.92 27.2159 195.96 27.4597L198.725 28.0691C201.163 28.6176 202.501 29.7755 202.501 32.2132C202.501 35.4737 199.795 37.4543 195.931 37.4543C192.066 37.4543 189.539 35.3213 189.539 32.2437H193.879H193.879Z" fill="#0F2170"/>
<g clip-path="url(#clip1_10620_2838)">
<path fill-rule="evenodd" clip-rule="evenodd" d="M26.3825 23.44C27.8838 24.976 27.8838 27.4891 26.3825 29.025C24.8813 30.561 22.425 30.561 20.9238 29.025C19.4225 27.4891 19.4225 24.976 20.9238 23.44C22.425 21.9041 24.8813 21.9041 26.3825 23.44Z" fill="#0F2170"/>
<path fill-rule="evenodd" clip-rule="evenodd" d="M20.4943 2.75975C16.2786 3.3689 12.2697 5.16051 8.95646 7.9439C15.834 7.27705 23.3086 10.1521 27.783 15.5489C38.024 27.9007 48.3905 22.6704 43.2401 13.5046C38.9324 5.83768 29.3351 1.51655 20.4943 2.75975ZM39.2468 5.65306C52.4287 15.8774 46.5821 28.9344 34.9809 24.1031C28.9747 21.6021 27.1137 17.4595 23.6552 14.6366C20.2146 17.4449 18.4444 21.4539 12.5345 24.0156C4.18378 27.6341 -2.11943 21.7472 1.56676 13.4833L2.55942 11.784C7.79168 3.7667 17.1476 -0.707485 26.5346 0.399673V0.397851C31.2768 1.01247 35.4536 2.64314 39.2468 5.65306ZM26.8077 49.7068C31.0246 49.0982 35.0347 47.3066 38.3485 44.522C31.4728 45.1901 23.9958 42.312 19.5226 36.9171C9.28157 24.5658 -1.08493 29.7943 4.06545 38.9613C8.37317 46.6276 17.9657 50.9469 26.8077 49.7074V49.7068ZM8.05882 46.8123C-5.12132 36.5903 0.72171 23.531 12.3253 28.3629C18.3327 30.8644 20.1925 35.0064 23.651 37.8293C27.0892 35.0246 28.8599 31.0126 34.7717 28.4503C43.1224 24.8312 49.4256 30.7187 45.7394 38.9826L44.7474 40.6813C39.5145 48.6998 30.1592 53.1734 20.7722 52.0669V52.0687C16.03 51.4541 11.8532 49.8234 8.06002 46.8129L8.05882 46.8123Z" fill="#0F2170"/>
</g>
</g>
<defs>
<clipPath id="clip0_10620_2838">
<rect width="202" height="52" fill="white" transform="translate(0.5 0.232422)"/>
</clipPath>
<clipPath id="clip1_10620_2838">
<rect width="46.3253" height="52" fill="white" transform="translate(0.490723 0.232422)"/>
</clipPath>
</defs>
</svg>
