<svg width="160" height="41" viewBox="0 0 160 41" fill="none" xmlns="http://www.w3.org/2000/svg">
<g clip-path="url(#clip0_10691_272)">
<path d="M42.7329 28.8276V11.4823H49.4255C53.6376 11.4823 56.0246 13.5216 56.0246 17.1078C56.0246 19.358 55.0652 20.9519 53.1463 21.9363L56.1884 28.8276H52.0467L49.4491 22.7567H46.524V28.8276H42.7329ZM46.5235 19.4283H49.4019C51.0631 19.4283 52.0226 18.5845 52.0226 17.1078C52.0226 15.6311 51.1099 14.8576 49.425 14.8576H46.5235V19.4283Z" fill="#00F7DF"/>
<path d="M56.4687 22.9443C56.4687 19.2877 58.9257 16.7328 62.4591 16.7328C65.9925 16.7328 68.4263 19.1471 68.4263 22.9677V23.8819L59.9318 23.9288C60.1423 25.4758 61.0083 26.2024 62.5992 26.2024C63.9565 26.2024 64.916 25.7102 65.1732 24.8663H68.4725C68.0516 27.4681 65.7348 29.1323 62.5289 29.1323C58.9955 29.1323 56.4683 26.554 56.4683 22.9443H56.4687ZM59.979 21.702H64.8461C64.8461 20.4597 63.9334 19.6628 62.4827 19.6628C61.0319 19.6628 60.2598 20.2956 59.979 21.702Z" fill="#00F7DF"/>
<path d="M70.0879 28.8276V17.1079H73.4575L73.6916 18.3267C74.2768 17.5063 75.4232 16.7328 77.108 16.7328C78.7928 16.7328 79.9864 17.5532 80.665 18.7955C81.2733 17.5532 82.6542 16.7328 84.3391 16.7328C87.3576 16.7328 88.8555 18.4908 88.8555 21.1629V28.8276H85.2518V22.1708C85.2518 20.6941 84.4797 19.9909 83.3329 19.9909C82.3031 19.9909 81.2738 20.5535 81.2738 22.5458V28.8276H77.6701V22.1708C77.6701 20.7176 76.9211 20.0144 75.7748 20.0144C74.745 20.0144 73.6921 20.5769 73.6921 22.5458V28.8276H70.0884H70.0879Z" fill="#00F7DF"/>
<path d="M96.7876 16.7563C100.508 16.7563 103.223 19.2409 103.223 22.9443C103.223 26.6477 100.508 29.1089 96.7876 29.1089C93.0673 29.1089 90.3291 26.6477 90.3291 22.9443C90.3291 19.2409 93.0437 16.7563 96.7876 16.7563ZM96.7876 25.8742C98.4493 25.8742 99.5957 24.7023 99.5957 22.9209C99.5957 21.1395 98.4488 19.9909 96.7876 19.9909C95.1264 19.9909 93.956 21.1629 93.956 22.9209C93.956 24.6788 95.1028 25.8742 96.7876 25.8742Z" fill="#00F7DF"/>
<path d="M105.282 28.8276V11.4823H109.073V18.3267H115.765V11.4823H119.556V28.8276H115.765V21.8426H109.073V28.8276H105.282Z" fill="#0F2170"/>
<path d="M121.966 13.2169C121.966 12.0683 122.879 11.1776 124.025 11.1776C125.171 11.1776 126.061 12.0683 126.061 13.2169C126.061 14.3654 125.148 15.2795 124.025 15.2795C122.902 15.2795 121.966 14.3654 121.966 13.2169ZM122.247 17.1078H125.85V28.8276H122.247V17.1078Z" fill="#0F2170"/>
<path d="M136.147 20.5066H135C132.941 20.5066 131.7 21.4207 131.7 23.7412V28.8276H128.097V17.1313H131.49L131.677 18.8658C132.169 17.7173 133.198 16.9438 134.766 16.9438C135.187 16.9438 135.655 16.9907 136.147 17.1078V20.5066Z" fill="#0F2170"/>
<path d="M136.521 22.9443C136.521 19.2877 138.977 16.7328 142.511 16.7328C146.044 16.7328 148.478 19.1471 148.478 22.9677V23.8819L139.984 23.9288C140.194 25.4758 141.06 26.2024 142.651 26.2024C144.009 26.2024 144.968 25.7102 145.225 24.8663H148.525C148.104 27.4681 145.787 29.1323 142.581 29.1323C139.048 29.1323 136.521 26.554 136.521 22.9443ZM140.031 21.702H144.898C144.898 20.4597 143.985 19.6628 142.534 19.6628C141.084 19.6628 140.312 20.2956 140.031 21.702Z" fill="#0F2170"/>
<path d="M152.714 25.1242C152.76 25.9446 153.369 26.4368 154.469 26.4368C155.569 26.4368 156.107 26.0383 156.107 25.4289C156.107 25.0773 155.92 24.7023 155.054 24.5148L152.901 24.046C150.748 23.5772 149.695 22.6396 149.695 20.5769C149.695 18.1392 151.778 16.7328 154.586 16.7328C157.394 16.7328 159.196 18.3267 159.196 20.6941H155.779C155.779 19.8972 155.288 19.3581 154.422 19.3581C153.603 19.3581 153.088 19.78 153.088 20.4128C153.088 20.9519 153.533 21.2567 154.352 21.4442L156.528 21.913C158.447 22.3349 159.5 23.2256 159.5 25.1007C159.5 27.6088 157.371 29.1323 154.329 29.1323C151.287 29.1323 149.298 27.4916 149.298 25.1242H152.714H152.714Z" fill="#0F2170"/>
<path fill-rule="evenodd" clip-rule="evenodd" d="M21.021 18.3196C22.2282 19.5188 22.2282 21.4812 21.021 22.6803C19.8138 23.88 17.8382 23.88 16.631 22.6803C15.4238 21.4807 15.4238 19.5183 16.631 18.3196C17.8382 17.12 19.8138 17.12 21.021 18.3196Z" fill="#0F2170"/>
<path d="M1.44325 10.4505C-2.6447 18.8568 7.32693 24.0384 16.6506 13.1212C21.6956 7.21348 31.2708 6.18683 35.6773 9.50868C32.6999 5.02189 27.9545 1.79614 22.4252 0.813087L22.3884 0.806524C22.2624 0.78449 22.1359 0.763864 22.0085 0.744174L21.8391 0.718391C21.7494 0.705265 21.6588 0.692608 21.5682 0.680419C21.454 0.665418 21.3398 0.650885 21.2251 0.637759L21.042 0.616664C20.9537 0.607288 20.8655 0.598381 20.7772 0.590411L20.646 0.578691C20.4842 0.564628 20.3227 0.552439 20.1599 0.542126L20.0051 0.532281C19.9235 0.527593 19.8414 0.523843 19.7593 0.520093L19.5308 0.511654C19.4563 0.508842 19.3808 0.506498 19.3062 0.504623C19.1745 0.50181 19.0428 0.499935 18.9107 0.499466H18.7804C11.379 0.526656 4.92003 4.51934 1.44325 10.4505Z" fill="#0F2170"/>
<path fill-rule="evenodd" clip-rule="evenodd" d="M20.1068 0.53891C20.2809 0.549692 20.4546 0.562349 20.6287 0.577819L20.6637 0.580632C20.8062 0.593289 20.9482 0.607353 21.0903 0.622823L21.2829 0.644856L21.4943 0.67064C27.5493 1.45821 32.7567 4.91835 35.8795 9.81955C40.7919 18.5897 30.5598 24.3089 21.0054 13.1212C15.9981 7.25855 6.53095 6.2033 2.08008 9.43421C5.67721 4.06515 11.8167 0.521564 18.7915 0.5H18.9359L19.2125 0.504219C19.3861 0.507501 19.5607 0.512657 19.7358 0.519689H19.7481C19.8675 0.524846 19.9869 0.531409 20.1068 0.53891Z" fill="#00F7DF"/>
<path d="M36.2097 30.5494C40.2976 22.1431 30.326 16.9616 21.0023 27.8787C15.9573 33.7864 6.38209 34.8131 1.97559 31.4912C4.95259 35.978 9.69842 39.2038 15.2272 40.1868L15.264 40.1934C15.39 40.2154 15.5165 40.2361 15.6439 40.2557L15.8133 40.2815C15.903 40.2947 15.9936 40.3073 16.0842 40.3195C16.1985 40.3345 16.3127 40.349 16.4273 40.3622L16.6105 40.3833C16.6987 40.3926 16.787 40.4015 16.8752 40.4095L17.0064 40.4212C17.1683 40.4353 17.3297 40.4475 17.4925 40.4578L17.6473 40.4676C17.729 40.4723 17.8111 40.4761 17.8932 40.4798L18.1216 40.4883C18.1962 40.4911 18.2717 40.4934 18.3463 40.4953C18.4779 40.4981 18.6096 40.5 18.7417 40.5005H18.872C26.2734 40.4737 32.7324 36.481 36.2092 30.5499" fill="#0F2170"/>
<path fill-rule="evenodd" clip-rule="evenodd" d="M17.5457 40.4611C17.3715 40.4503 17.1979 40.4377 17.0237 40.4222L16.9888 40.4194C16.8463 40.4067 16.7042 40.3927 16.5622 40.3772L16.3696 40.3552L16.1582 40.3294C10.1032 39.5418 4.89581 36.0817 1.77298 31.1805C-3.13945 22.4103 7.09269 16.6911 16.6471 27.8788C21.6539 33.7415 31.1211 34.7967 35.5719 31.5658C31.9748 36.9353 25.8353 40.4784 18.861 40.5H18.7166L18.44 40.4963C18.2663 40.493 18.0917 40.4878 17.9166 40.4808H17.9044C17.785 40.4756 17.6656 40.4686 17.5457 40.4616" fill="#00F7DF"/>
</g>
<defs>
<clipPath id="clip0_10691_272">
<rect width="159" height="40" fill="white" transform="translate(0.5 0.5)"/>
</clipPath>
</defs>
</svg>
